<?xml version="1.0" encoding="iso-8859-1"?>
<!-- Generator: Adobe Illustrator 18.1.1, SVG Export Plug-In . SVG Version: 6.00 Build 0)  -->
<svg version="1.1" id="Capa_1" xmlns="http://www.w3.org/2000/svg" xmlns:xlink="http://www.w3.org/1999/xlink" x="0px" y="0px"
	 viewBox="0 0 46.701 46.701" style="enable-background:new 0 0 46.701 46.701;" xml:space="preserve">
<g>
	<g id="b96_glass">
		<path d="M25.438,43.785V24.441c6.357-1.174,11.236-7.637,11.236-15.408c0-3.092-0.772-6.078-2.229-8.639L34.221,0H12.482
			l-0.226,0.395c-1.457,2.562-2.229,5.548-2.229,8.638c0,7.826,4.949,14.324,11.371,15.436v19.316
			c-3.846,0.156-6.713,0.74-6.713,1.439c0,0.814,3.91,1.477,8.73,1.477c4.829,0,8.736-0.662,8.736-1.477
			C32.152,44.525,29.288,43.941,25.438,43.785z M11.591,9.033c0-2.658,0.626-5.23,1.807-7.469h19.906
			c1.183,2.234,1.805,4.807,1.805,7.469c0,7.74-5.271,14.037-11.757,14.037C16.868,23.07,11.591,16.773,11.591,9.033z"/>
	</g>
	<g id="Capa_1_188_">
	</g>
</g>
<g>
</g>
<g>
</g>
<g>
</g>
<g>
</g>
<g>
</g>
<g>
</g>
<g>
</g>
<g>
</g>
<g>
</g>
<g>
</g>
<g>
</g>
<g>
</g>
<g>
</g>
<g>
</g>
<g>
</g>
</svg>
